<?xml version="1.0" encoding="UTF-8"?>
<!DOCTYPE svg PUBLIC "-//W3C//DTD SVG 1.1//EN" "http://www.w3.org/Graphics/SVG/1.1/DTD/svg11.dtd">
<svg xmlns="http://www.w3.org/2000/svg" version="1.1" width="181px" height="181px" style="shape-rendering:geometricPrecision; text-rendering:geometricPrecision; image-rendering:optimizeQuality; fill-rule:evenodd; clip-rule:evenodd" xmlns:xlink="http://www.w3.org/1999/xlink">
<g><path style="opacity:0.388" fill="#f3d4df" d="M 98.5,39.5 C 96.0365,37.5389 93.7032,35.3722 91.5,33C 90.8333,32.3333 90.1667,32.3333 89.5,33C 83.2036,39.782 77.2036,46.6153 71.5,53.5C 76.1669,45.6524 81.8336,38.4857 88.5,32C 93.3149,32.2909 96.6483,34.7909 98.5,39.5 Z"/></g>
<g><path style="opacity:0.443" fill="#f1d7e1" d="M 43.5,40.5 C 41.4458,40.3653 39.7791,41.032 38.5,42.5C 38.8368,38.1609 40.5035,37.4942 43.5,40.5 Z"/></g>
<g><path style="opacity:1" fill="#e9538a" d="M 98.5,39.5 C 100.094,42.7642 102.427,45.4309 105.5,47.5C 105.738,49.4044 106.738,50.7377 108.5,51.5C 109.338,51.8417 109.672,52.5084 109.5,53.5C 109.427,55.0269 110.094,56.0269 111.5,56.5C 111.427,58.0269 112.094,59.0269 113.5,59.5C 114.674,60.5137 115.34,61.847 115.5,63.5C 115.12,65.698 115.787,67.3646 117.5,68.5C 117.528,71.9164 118.528,74.9164 120.5,77.5C 120.5,77.8333 120.5,78.1667 120.5,78.5C 120.646,86.1956 120.313,93.8623 119.5,101.5C 119.405,103.786 118.738,105.786 117.5,107.5C 114.659,111.849 112.326,116.516 110.5,121.5C 110.5,122.167 110.167,122.5 109.5,122.5C 108.094,122.973 107.427,123.973 107.5,125.5C 105.738,126.262 104.738,127.596 104.5,129.5C 103.5,129.833 102.833,130.5 102.5,131.5C 101.5,131.833 100.833,132.5 100.5,133.5C 99.8423,132.602 99.1757,131.602 98.5,130.5C 97.7717,132.193 96.7717,133.693 95.5,135C 95.9574,135.414 96.2907,135.914 96.5,136.5C 94.7988,136.19 93.1322,136.69 91.5,138C 92.3802,139.356 92.7135,140.856 92.5,142.5C 90.3146,142.296 88.3146,141.63 86.5,140.5C 86.1667,139.833 85.8333,139.167 85.5,138.5C 84.5721,136.401 83.0721,134.734 81,133.5C 80.51,132.207 80.3433,130.873 80.5,129.5C 79.5,129.5 78.5,129.5 77.5,129.5C 77.1583,128.662 76.4916,128.328 75.5,128.5C 75.573,126.973 74.9063,125.973 73.5,125.5C 73.2624,123.596 72.2624,122.262 70.5,121.5C 69.6618,121.158 69.3284,120.492 69.5,119.5C 68.5903,116.008 66.9236,113.008 64.5,110.5C 63.596,109.791 63.2627,108.791 63.5,107.5C 63.067,104.834 62.567,102.168 62,99.5C 61.6174,98.944 61.1174,98.6107 60.5,98.5C 60.5,91.5 60.5,84.5 60.5,77.5C 62.1628,75.5615 62.8294,73.2282 62.5,70.5C 65.1648,68.1645 66.4982,65.1645 66.5,61.5C 68.4077,60.5144 69.4077,58.8477 69.5,56.5C 70.9063,56.0269 71.573,55.0269 71.5,53.5C 77.2036,46.6153 83.2036,39.782 89.5,33C 90.1667,32.3333 90.8333,32.3333 91.5,33C 93.7032,35.3722 96.0365,37.5389 98.5,39.5 Z"/></g>
<g><path style="opacity:0.733" fill="#ebc1d0" d="M 98.5,39.5 C 101.573,41.5691 103.906,44.2358 105.5,47.5C 102.427,45.4309 100.094,42.7642 98.5,39.5 Z"/></g>
<g><path style="opacity:0.89" fill="#e0abbe" d="M 141.5,40.5 C 139.565,41.1495 137.565,41.4828 135.5,41.5C 137.32,39.5389 139.32,39.2056 141.5,40.5 Z"/></g>
<g><path style="opacity:0.098" fill="#f5d6e1" d="M 43.5,40.5 C 47.3295,41.3666 50.6628,43.0332 53.5,45.5C 49.6705,44.6334 46.3372,42.9668 43.5,40.5 Z"/></g>
<g><path style="opacity:0.063" fill="#f7e4eb" d="M 141.5,40.5 C 143.104,41.287 143.771,42.6203 143.5,44.5C 142.326,43.4863 141.66,42.153 141.5,40.5 Z"/></g>
<g><path style="opacity:0.369" fill="#f3d2de" d="M 135.5,41.5 C 133.388,43.7705 130.721,45.1039 127.5,45.5C 129.837,43.6036 132.504,42.2703 135.5,41.5 Z"/></g>
<g><path style="opacity:0.329" fill="#f3d0db" d="M 53.5,45.5 C 56.3311,46.0787 58.6644,47.412 60.5,49.5C 57.6689,48.9213 55.3356,47.588 53.5,45.5 Z"/></g>
<g><path style="opacity:0.251" fill="#f2d4df" d="M 125.5,46.5 C 124.341,48.2503 122.674,49.2503 120.5,49.5C 121.659,47.7497 123.326,46.7497 125.5,46.5 Z"/></g>
<g><path style="opacity:0.098" fill="#f4e5eb" d="M 143.5,44.5 C 144.931,45.7804 145.598,47.4471 145.5,49.5C 144.069,48.2196 143.402,46.5529 143.5,44.5 Z"/></g>
<g><path style="opacity:1" fill="#e9548a" d="M 43.5,40.5 C 46.3372,42.9668 49.6705,44.6334 53.5,45.5C 55.3356,47.588 57.6689,48.9213 60.5,49.5C 61.4916,49.3284 62.1583,49.6618 62.5,50.5C 63.8333,52.1667 63.8333,53.8333 62.5,55.5C 60.461,56.911 59.461,58.911 59.5,61.5C 59.6716,62.4916 59.3382,63.1583 58.5,63.5C 57.8826,63.6107 57.3826,63.944 57,64.5C 52.9858,74.0026 51.8191,83.6693 53.5,93.5C 53.5,93.8333 53.5,94.1667 53.5,94.5C 53.335,97.8499 53.5017,101.183 54,104.5C 54.8518,105.571 55.6851,106.571 56.5,107.5C 56.1201,109.698 56.7868,111.365 58.5,112.5C 58.2917,116.085 59.625,118.751 62.5,120.5C 62.427,122.027 63.0937,123.027 64.5,123.5C 65.3382,123.842 65.6716,124.508 65.5,125.5C 65.427,127.027 66.0937,128.027 67.5,128.5C 67.7376,130.404 68.7376,131.738 70.5,132.5C 70.631,133.239 70.4643,133.906 70,134.5C 69.3292,133.748 68.4959,133.414 67.5,133.5C 67.0269,132.094 66.0269,131.427 64.5,131.5C 63.5084,131.672 62.8417,131.338 62.5,130.5C 61.4154,128.413 59.7488,127.08 57.5,126.5C 56.4154,124.413 54.7488,123.08 52.5,122.5C 49.7852,119.118 46.7852,116.118 43.5,113.5C 43.2624,111.596 42.2624,110.262 40.5,109.5C 40.573,107.973 39.9063,106.973 38.5,106.5C 37.6618,106.158 37.3284,105.492 37.5,104.5C 36.0698,100.646 34.4031,96.9789 32.5,93.5C 31.5489,92.0813 31.2155,90.4147 31.5,88.5C 31.5,80.5 31.5,72.5 31.5,64.5C 33.8192,57.2432 36.1525,49.9099 38.5,42.5C 39.7791,41.032 41.4458,40.3653 43.5,40.5 Z"/></g>
<g><path style="opacity:0.376" fill="#efcfdb" d="M 105.5,47.5 C 107.262,48.2623 108.262,49.5956 108.5,51.5C 106.738,50.7377 105.738,49.4044 105.5,47.5 Z"/></g>
<g><path style="opacity:0.627" fill="#f0b8cb" d="M 120.5,49.5 C 120.027,50.9063 119.027,51.573 117.5,51.5C 117.973,50.0937 118.973,49.427 120.5,49.5 Z"/></g>
<g><path style="opacity:1" fill="#e8548a" d="M 141.5,40.5 C 141.66,42.153 142.326,43.4863 143.5,44.5C 143.402,46.5529 144.069,48.2196 145.5,49.5C 146.232,55.0937 147.565,60.4271 149.5,65.5C 149.5,73.1667 149.5,80.8333 149.5,88.5C 149.784,90.4147 149.451,92.0813 148.5,93.5C 147.069,94.7804 146.402,96.4471 146.5,98.5C 144.755,100.033 143.755,102.033 143.5,104.5C 143.672,105.492 143.338,106.158 142.5,106.5C 141.094,106.973 140.427,107.973 140.5,109.5C 138.738,110.262 137.738,111.596 137.5,113.5C 137.5,114.167 137.167,114.5 136.5,114.5C 133.833,116.5 131.5,118.833 129.5,121.5C 128.5,123.167 127.167,124.5 125.5,125.5C 123.973,125.427 122.973,126.094 122.5,127.5C 120.973,127.427 119.973,128.094 119.5,129.5C 119.5,130.167 119.167,130.5 118.5,130.5C 116.973,130.427 115.973,131.094 115.5,132.5C 115.158,133.338 114.492,133.672 113.5,133.5C 112.167,133.5 111.5,132.833 111.5,131.5C 113.326,129.853 114.66,127.853 115.5,125.5C 117.161,123.672 118.828,121.672 120.5,119.5C 121.946,117.382 122.613,115.049 122.5,112.5C 124.655,110.383 125.655,107.716 125.5,104.5C 125.5,104.167 125.5,103.833 125.5,103.5C 127.223,101.22 127.889,98.5533 127.5,95.5C 127.5,94.8333 127.5,94.1667 127.5,93.5C 129.151,83.6796 127.985,74.0129 124,64.5C 123.623,63.0577 122.79,62.0577 121.5,61.5C 121.539,58.911 120.539,56.911 118.5,55.5C 118.167,54.1667 117.833,52.8333 117.5,51.5C 119.027,51.573 120.027,50.9063 120.5,49.5C 122.674,49.2503 124.341,48.2503 125.5,46.5C 125.842,45.6618 126.508,45.3284 127.5,45.5C 130.721,45.1039 133.388,43.7705 135.5,41.5C 137.565,41.4828 139.565,41.1495 141.5,40.5 Z"/></g>
<g><path style="opacity:0.482" fill="#f1cfdb" d="M 38.5,42.5 C 36.1525,49.9099 33.8192,57.2432 31.5,64.5C 32.3058,56.5875 34.6391,49.2542 38.5,42.5 Z"/></g>
<g><path style="opacity:0.165" fill="#f1dae2" d="M 62.5,50.5 C 65.8416,51.6642 65.8416,53.3308 62.5,55.5C 63.8333,53.8333 63.8333,52.1667 62.5,50.5 Z"/></g>
<g><path style="opacity:0.212" fill="#f3e1e7" d="M 117.5,51.5 C 117.833,52.8333 118.167,54.1667 118.5,55.5C 116.481,54.4617 116.147,53.1284 117.5,51.5 Z"/></g>
<g><path style="opacity:0.463" fill="#f1d5e0" d="M 145.5,49.5 C 147.822,54.4879 149.155,59.8212 149.5,65.5C 147.565,60.4271 146.232,55.0937 145.5,49.5 Z"/></g>
<g><path style="opacity:0.361" fill="#eac3d2" d="M 71.5,53.5 C 71.573,55.0269 70.9063,56.0269 69.5,56.5C 69.427,54.9731 70.0937,53.9731 71.5,53.5 Z"/></g>
<g><path style="opacity:0.318" fill="#ebc6d3" d="M 109.5,53.5 C 110.906,53.9731 111.573,54.9731 111.5,56.5C 110.094,56.0269 109.427,55.0269 109.5,53.5 Z"/></g>
<g><path style="opacity:0.251" fill="#f2d4de" d="M 62.5,55.5 C 62.0075,57.8185 61.0075,59.8185 59.5,61.5C 59.461,58.911 60.461,56.911 62.5,55.5 Z"/></g>
<g><path style="opacity:0.239" fill="#f2d4df" d="M 118.5,55.5 C 120.539,56.911 121.539,58.911 121.5,61.5C 119.992,59.8185 118.992,57.8185 118.5,55.5 Z"/></g>
<g><path style="opacity:0.212" fill="#efd6df" d="M 111.5,56.5 C 112.906,56.9731 113.573,57.9731 113.5,59.5C 112.094,59.0269 111.427,58.0269 111.5,56.5 Z"/></g>
<g><path style="opacity:0.847" fill="#ecabc1" d="M 69.5,56.5 C 69.4077,58.8477 68.4077,60.5144 66.5,61.5C 66.7497,59.326 67.7497,57.6594 69.5,56.5 Z"/></g>
<g><path style="opacity:0.851" fill="#e7a7bb" d="M 66.5,61.5 C 66.4982,65.1645 65.1648,68.1645 62.5,70.5C 63.0749,67.0884 64.4082,64.0884 66.5,61.5 Z"/></g>
<g><path style="opacity:0.459" fill="#efcfdb" d="M 58.5,63.5 C 54.8923,73.1463 53.2256,83.1463 53.5,93.5C 51.8191,83.6693 52.9858,74.0026 57,64.5C 57.3826,63.944 57.8826,63.6107 58.5,63.5 Z"/></g>
<g><path style="opacity:0.769" fill="#e7b3c7" d="M 115.5,63.5 C 116.931,64.7804 117.598,66.4471 117.5,68.5C 115.787,67.3646 115.12,65.698 115.5,63.5 Z"/></g>
<g><path style="opacity:0.769" fill="#e7b8c8" d="M 117.5,68.5 C 119.072,71.2154 120.072,74.2154 120.5,77.5C 118.528,74.9164 117.528,71.9164 117.5,68.5 Z"/></g>
<g><path style="opacity:0.317" fill="#f1d9e1" d="M 25.5,90.5 C 23.7949,85.0967 23.1282,79.43 23.5,73.5C 17.8333,73.5 12.1667,73.5 6.5,73.5C 5.83333,73.5 5.16667,73.5 4.5,73.5C 10.5674,72.8153 16.7341,72.1486 23,71.5C 24.0217,72.354 24.8551,73.354 25.5,74.5C 24.9678,79.7718 24.9678,85.1051 25.5,90.5 Z"/></g>
<g><path style="opacity:0.212" fill="#f1d6e0" d="M 121.5,61.5 C 122.79,62.0577 123.623,63.0577 124,64.5C 127.985,74.0129 129.151,83.6796 127.5,93.5C 127.681,82.4053 125.681,71.7387 121.5,61.5 Z"/></g>
<g><path style="opacity:0.336" fill="#efd4de" d="M 180.5,73.5 C 180.5,73.8333 180.5,74.1667 180.5,74.5C 172.858,73.7368 165.191,73.4035 157.5,73.5C 157.5,75.8333 157.5,78.1667 157.5,80.5C 157.167,80.5 156.833,80.5 156.5,80.5C 156.768,78.901 156.434,77.5676 155.5,76.5C 155.284,74.3193 156.117,72.6526 158,71.5C 165.437,72.3409 172.937,73.0075 180.5,73.5 Z"/></g>
<g><path style="opacity:1" fill="#e8548a" d="M 6.5,73.5 C 12.1667,73.5 17.8333,73.5 23.5,73.5C 23.1282,79.43 23.7949,85.0967 25.5,90.5C 25.4596,95.3599 26.7929,99.6932 29.5,103.5C 31.0075,105.181 32.0075,107.181 32.5,109.5C 32.7376,111.404 33.7376,112.738 35.5,113.5C 35.7376,115.404 36.7376,116.738 38.5,117.5C 41.5,122.5 45.5,126.5 50.5,129.5C 51.2623,131.262 52.5956,132.262 54.5,132.5C 55.0347,134.446 56.368,135.446 58.5,135.5C 59.0347,137.446 60.368,138.446 62.5,138.5C 63.6594,140.25 65.326,141.25 67.5,141.5C 68.609,141.557 69.609,141.89 70.5,142.5C 71.1223,144.335 72.4556,145.502 74.5,146C 68.1754,146.5 61.8421,146.666 55.5,146.5C 55.1667,146.5 54.8333,146.5 54.5,146.5C 49.4183,144.563 44.0849,143.23 38.5,142.5C 35.5152,141.674 32.8485,140.341 30.5,138.5C 30.0269,137.094 29.0269,136.427 27.5,136.5C 27.0269,135.094 26.0269,134.427 24.5,134.5C 21.7852,131.118 18.7852,128.118 15.5,125.5C 14.8305,122.151 13.1639,119.484 10.5,117.5C 5.59478,105.643 2.59478,93.3099 1.5,80.5C 1.5,78.5 1.5,76.5 1.5,74.5C 3.41467,74.7845 5.08134,74.4511 6.5,73.5 Z"/></g>
<g><path style="opacity:0.576" fill="#f1c9d8" d="M 31.5,64.5 C 31.5,72.5 31.5,80.5 31.5,88.5C 28.8333,80.5 28.8333,72.5 31.5,64.5 Z"/></g>
<g><path style="opacity:0.333" fill="#eecbd7" d="M 62.5,70.5 C 62.8294,73.2282 62.1628,75.5615 60.5,77.5C 60.4095,74.8478 61.0762,72.5145 62.5,70.5 Z"/></g>
<g><path style="opacity:0.565" fill="#f3cddc" d="M 149.5,65.5 C 151.966,72.8891 151.966,80.5558 149.5,88.5C 149.5,80.8333 149.5,73.1667 149.5,65.5 Z"/></g>
<g><path style="opacity:0.008" fill="#fdfefd" d="M 155.5,76.5 C 154.833,77.1667 154.833,77.1667 155.5,76.5 Z"/></g>
<g><path style="opacity:0.663" fill="#e196b0" d="M 4.5,73.5 C 5.16667,73.5 5.83333,73.5 6.5,73.5C 5.08134,74.4511 3.41467,74.7845 1.5,74.5C 1.5,76.5 1.5,78.5 1.5,80.5C 0.538616,78.7354 0.205283,76.7354 0.5,74.5C 1.56764,73.5655 2.90097,73.2322 4.5,73.5 Z"/></g>
<g><path style="opacity:0.456" fill="#e8c8d4" d="M 120.5,78.5 C 121.654,84.987 121.821,91.6536 121,98.5C 120.768,99.7375 120.268,100.737 119.5,101.5C 120.313,93.8623 120.646,86.1956 120.5,78.5 Z"/></g>
<g><path style="opacity:0.482" fill="#eac6d3" d="M 60.5,77.5 C 60.5,84.5 60.5,91.5 60.5,98.5C 58.5346,91.645 58.5346,84.645 60.5,77.5 Z"/></g>
<g><path style="opacity:0.263" fill="#f1d7e1" d="M 148.5,93.5 C 148.598,95.5529 147.931,97.2196 146.5,98.5C 146.402,96.4471 147.069,94.7804 148.5,93.5 Z"/></g>
<g><path style="opacity:0.302" fill="#eecfda" d="M 25.5,90.5 C 26.9713,94.6992 28.3047,99.0326 29.5,103.5C 26.7929,99.6932 25.4596,95.3599 25.5,90.5 Z"/></g>
<g><path style="opacity:0.18" fill="#f2d4df" d="M 32.5,93.5 C 34.4031,96.9789 36.0698,100.646 37.5,104.5C 34.5124,101.519 32.8457,97.8524 32.5,93.5 Z"/></g>
<g><path style="opacity:0.043" fill="#f6dee6" d="M 127.5,95.5 C 127.889,98.5533 127.223,101.22 125.5,103.5C 125.565,100.572 126.232,97.9052 127.5,95.5 Z"/></g>
<g><path style="opacity:0.463" fill="#ecbacb" d="M 156.5,80.5 C 156.833,80.5 157.167,80.5 157.5,80.5C 157.434,89.4621 155.434,97.9621 151.5,106C 151.164,107.03 150.497,107.53 149.5,107.5C 152.93,98.7806 155.263,89.7806 156.5,80.5 Z"/></g>
<g><path style="opacity:0.302" fill="#f4dce5" d="M -0.5,74.5 C -0.166667,74.5 0.166667,74.5 0.5,74.5C 0.205283,76.7354 0.538616,78.7354 1.5,80.5C 2.59478,93.3099 5.59478,105.643 10.5,117.5C 8.39832,114.069 6.56499,110.402 5,106.5C 2.82468,98.4373 0.991345,90.4373 -0.5,82.5C -0.5,79.8333 -0.5,77.1667 -0.5,74.5 Z"/></g>
<g><path style="opacity:0.878" fill="#eab7c8" d="M 53.5,94.5 C 54.8632,98.6319 55.8632,102.965 56.5,107.5C 55.6851,106.571 54.8518,105.571 54,104.5C 53.5017,101.183 53.335,97.8499 53.5,94.5 Z"/></g>
<g><path style="opacity:0.294" fill="#f1d7e1" d="M 180.5,80.5 C 180.5,83.5 180.5,86.5 180.5,89.5C 178.561,99.3159 175.228,108.649 170.5,117.5C 175.011,105.364 178.344,93.0305 180.5,80.5 Z"/></g>
<g><path style="opacity:0.188" fill="#eec8d6" d="M 146.5,98.5 C 146.539,101.089 145.539,103.089 143.5,104.5C 143.755,102.033 144.755,100.033 146.5,98.5 Z"/></g>
<g><path style="opacity:0.29" fill="#edc6d3" d="M 60.5,98.5 C 61.1174,98.6107 61.6174,98.944 62,99.5C 62.567,102.168 63.067,104.834 63.5,107.5C 61.7475,104.854 60.7475,101.854 60.5,98.5 Z"/></g>
<g><path style="opacity:0.145" fill="#f0d9e2" d="M 38.5,106.5 C 39.9063,106.973 40.573,107.973 40.5,109.5C 39.0937,109.027 38.427,108.027 38.5,106.5 Z"/></g>
<g><path style="opacity:0.22" fill="#efd3dd" d="M 142.5,106.5 C 142.573,108.027 141.906,109.027 140.5,109.5C 140.427,107.973 141.094,106.973 142.5,106.5 Z"/></g>
<g><path style="opacity:0.29" fill="#f0d0dc" d="M 149.5,107.5 C 149.573,109.027 148.906,110.027 147.5,110.5C 147.427,108.973 148.094,107.973 149.5,107.5 Z"/></g>
<g><path style="opacity:0.059" fill="#f1d6e0" d="M 40.5,109.5 C 42.2624,110.262 43.2624,111.596 43.5,113.5C 41.7376,112.738 40.7376,111.404 40.5,109.5 Z"/></g>
<g><path style="opacity:0.62" fill="#e8bbcb" d="M 56.5,107.5 C 57.5375,108.93 58.2041,110.597 58.5,112.5C 56.7868,111.365 56.1201,109.698 56.5,107.5 Z"/></g>
<g><path style="opacity:0.722" fill="#eeb2c7" d="M 125.5,104.5 C 125.655,107.716 124.655,110.383 122.5,112.5C 122.733,109.458 123.733,106.792 125.5,104.5 Z"/></g>
<g><path style="opacity:0.063" fill="#f0d9e2" d="M 140.5,109.5 C 140.262,111.404 139.262,112.738 137.5,113.5C 137.738,111.596 138.738,110.262 140.5,109.5 Z"/></g>
<g><path style="opacity:0.435" fill="#ecc8d5" d="M 32.5,109.5 C 34.2624,110.262 35.2624,111.596 35.5,113.5C 33.7376,112.738 32.7376,111.404 32.5,109.5 Z"/></g>
<g><path style="opacity:0.298" fill="#f1d0dc" d="M 64.5,110.5 C 66.9236,113.008 68.5903,116.008 69.5,119.5C 67.0764,116.992 65.4097,113.992 64.5,110.5 Z"/></g>
<g><path style="opacity:0.247" fill="#f1d7e0" d="M 117.5,107.5 C 116.207,112.753 113.874,117.419 110.5,121.5C 112.326,116.516 114.659,111.849 117.5,107.5 Z"/></g>
<g><path style="opacity:0.302" fill="#efd5df" d="M 147.5,110.5 C 147.573,112.027 146.906,113.027 145.5,113.5C 145.427,111.973 146.094,110.973 147.5,110.5 Z"/></g>
<g><path style="opacity:0.486" fill="#f2d6e0" d="M 35.5,113.5 C 37.2624,114.262 38.2624,115.596 38.5,117.5C 36.7376,116.738 35.7376,115.404 35.5,113.5 Z"/></g>
<g><path style="opacity:0.529" fill="#f1d0db" d="M 145.5,113.5 C 145.262,115.404 144.262,116.738 142.5,117.5C 142.738,115.596 143.738,114.262 145.5,113.5 Z"/></g>
<g><path style="opacity:0.016" fill="#f4d6e0" d="M 43.5,113.5 C 46.7852,116.118 49.7852,119.118 52.5,122.5C 48.5216,120.522 45.5216,117.522 43.5,113.5 Z"/></g>
<g><path style="opacity:0.839" fill="#e9abbf" d="M 58.5,112.5 C 60.341,114.849 61.6743,117.515 62.5,120.5C 59.625,118.751 58.2917,116.085 58.5,112.5 Z"/></g>
<g><path style="opacity:0.506" fill="#f2d3de" d="M 38.5,117.5 C 42.8333,121.167 46.8333,125.167 50.5,129.5C 45.5,126.5 41.5,122.5 38.5,117.5 Z"/></g>
<g><path style="opacity:0.039" fill="#f7e3ea" d="M 136.5,114.5 C 135.167,117.833 132.833,120.167 129.5,121.5C 131.5,118.833 133.833,116.5 136.5,114.5 Z"/></g>
<g><path style="opacity:0.325" fill="#f3d3de" d="M 10.5,117.5 C 13.1639,119.484 14.8305,122.151 15.5,125.5C 13.336,123.178 11.6693,120.511 10.5,117.5 Z"/></g>
<g><path style="opacity:0.773" fill="#e9b4c7" d="M 52.5,122.5 C 54.7488,123.08 56.4154,124.413 57.5,126.5C 55.2512,125.92 53.5846,124.587 52.5,122.5 Z"/></g>
<g><path style="opacity:0.243" fill="#f4dde6" d="M 62.5,120.5 C 63.9063,120.973 64.573,121.973 64.5,123.5C 63.0937,123.027 62.427,122.027 62.5,120.5 Z"/></g>
<g><path style="opacity:0.008" fill="#f5e0e8" d="M 70.5,121.5 C 72.2624,122.262 73.2624,123.596 73.5,125.5C 71.7376,124.738 70.7376,123.404 70.5,121.5 Z"/></g>
<g><path style="opacity:0.125" fill="#f3d9e3" d="M 170.5,117.5 C 169.241,121.025 167.241,124.025 164.5,126.5C 165.759,122.975 167.759,119.975 170.5,117.5 Z"/></g>
<g><path style="opacity:0.427" fill="#efc9d6" d="M 142.5,117.5 C 139.5,122.5 135.5,126.5 130.5,129.5C 134.167,125.167 138.167,121.167 142.5,117.5 Z"/></g>
<g><path style="opacity:0.208" fill="#f0d4de" d="M 109.5,122.5 C 109.573,124.027 108.906,125.027 107.5,125.5C 107.427,123.973 108.094,122.973 109.5,122.5 Z"/></g>
<g><path style="opacity:0.906" fill="#ebabc0" d="M 122.5,112.5 C 122.613,115.049 121.946,117.382 120.5,119.5C 118.828,121.672 117.161,123.672 115.5,125.5C 117.439,120.91 119.773,116.577 122.5,112.5 Z"/></g>
<g><path style="opacity:0.059" fill="#f4e0e8" d="M 73.5,125.5 C 74.9063,125.973 75.573,126.973 75.5,128.5C 74.0937,128.027 73.427,127.027 73.5,125.5 Z"/></g>
<g><path style="opacity:0.012" fill="#f7e9ee" d="M 125.5,125.5 C 125.027,126.906 124.027,127.573 122.5,127.5C 122.973,126.094 123.973,125.427 125.5,125.5 Z"/></g>
<g><path style="opacity:0.329" fill="#f5dae3" d="M 15.5,125.5 C 18.7852,128.118 21.7852,131.118 24.5,134.5C 20.5216,132.522 17.5216,129.522 15.5,125.5 Z"/></g>
<g><path style="opacity:0.345" fill="#f0ccd9" d="M 65.5,125.5 C 66.9063,125.973 67.573,126.973 67.5,128.5C 66.0937,128.027 65.427,127.027 65.5,125.5 Z"/></g>
<g><path style="opacity:0.11" fill="#f3d7e1" d="M 107.5,125.5 C 107.262,127.404 106.262,128.738 104.5,129.5C 104.738,127.596 105.738,126.262 107.5,125.5 Z"/></g>
<g><path style="opacity:0.408" fill="#f0c8d6" d="M 115.5,125.5 C 114.66,127.853 113.326,129.853 111.5,131.5C 111.845,128.802 113.178,126.802 115.5,125.5 Z"/></g>
<g><path style="opacity:0.043" fill="#f2d8e1" d="M 122.5,127.5 C 122.027,128.906 121.027,129.573 119.5,129.5C 119.973,128.094 120.973,127.427 122.5,127.5 Z"/></g>
<g><path style="opacity:0.008" fill="#f7e7ec" d="M 163.5,127.5 C 163.5,128.833 162.833,129.5 161.5,129.5C 161.833,128.5 162.5,127.833 163.5,127.5 Z"/></g>
<g><path style="opacity:0.008" fill="#f6e1e8" d="M 50.5,129.5 C 52.4044,129.738 53.7377,130.738 54.5,132.5C 52.5956,132.262 51.2623,131.262 50.5,129.5 Z"/></g>
<g><path style="opacity:0.208" fill="#f3cdda" d="M 57.5,126.5 C 59.7488,127.08 61.4154,128.413 62.5,130.5C 60.2512,129.92 58.5846,128.587 57.5,126.5 Z"/></g>
<g><path style="opacity:0.443" fill="#f0c6d6" d="M 67.5,128.5 C 69.2624,129.262 70.2624,130.596 70.5,132.5C 68.7376,131.738 67.7376,130.404 67.5,128.5 Z"/></g>
<g><path style="opacity:0.016" fill="#f2d4df" d="M 75.5,128.5 C 76.4916,128.328 77.1583,128.662 77.5,129.5C 78.6005,130.605 79.2671,131.938 79.5,133.5C 77.457,132.421 76.1237,130.754 75.5,128.5 Z"/></g>
<g><path style="opacity:1" fill="#e17c9e" d="M 77.5,129.5 C 78.5,129.5 79.5,129.5 80.5,129.5C 80.3433,130.873 80.51,132.207 81,133.5C 83.0721,134.734 84.5721,136.401 85.5,138.5C 84.8333,138.167 84.1667,137.833 83.5,137.5C 81.8333,136.5 80.5,135.167 79.5,133.5C 79.2671,131.938 78.6005,130.605 77.5,129.5 Z"/></g>
<g><path style="opacity:0.02" fill="#f6e4ea" d="M 104.5,129.5 C 104.5,130.833 103.833,131.5 102.5,131.5C 102.833,130.5 103.5,129.833 104.5,129.5 Z"/></g>
<g><path style="opacity:0.008" fill="#f5e7ec" d="M 118.5,130.5 C 118.027,131.906 117.027,132.573 115.5,132.5C 115.973,131.094 116.973,130.427 118.5,130.5 Z"/></g>
<g><path style="opacity:0.035" fill="#f7e2e9" d="M 161.5,129.5 C 161.5,131.5 160.5,132.5 158.5,132.5C 159.167,131.167 160.167,130.167 161.5,129.5 Z"/></g>
<g><path style="opacity:0.482" fill="#eabbcc" d="M 64.5,131.5 C 66.0269,131.427 67.0269,132.094 67.5,133.5C 65.9731,133.573 64.9731,132.906 64.5,131.5 Z"/></g>
<g><path style="opacity:0.024" fill="#f3d4de" d="M 102.5,131.5 C 102.573,133.027 101.906,134.027 100.5,134.5C 100.5,134.167 100.5,133.833 100.5,133.5C 100.833,132.5 101.5,131.833 102.5,131.5 Z"/></g>
<g><path style="opacity:0.392" fill="#f2d3de" d="M 130.5,129.5 C 128.557,132.471 125.891,134.471 122.5,135.5C 124.8,133.016 127.467,131.016 130.5,129.5 Z"/></g>
<g><path style="opacity:0.478" fill="#edcbd8" d="M 24.5,134.5 C 26.0269,134.427 27.0269,135.094 27.5,136.5C 25.9731,136.573 24.9731,135.906 24.5,134.5 Z"/></g>
<g><path style="opacity:0.443" fill="#ecc5d2" d="M 54.5,132.5 C 56.2303,133.026 57.5637,134.026 58.5,135.5C 56.368,135.446 55.0347,134.446 54.5,132.5 Z"/></g>
<g><path style="opacity:0.565" fill="#e6c0ce" d="M 70.5,132.5 C 73.4073,133.614 73.9073,135.281 72,137.5C 70.3333,136.267 68.8333,134.933 67.5,133.5C 68.4959,133.414 69.3292,133.748 70,134.5C 70.4643,133.906 70.631,133.239 70.5,132.5 Z"/></g>
<g><path style="opacity:1" fill="#e97b9f" d="M 100.5,133.5 C 100.5,133.833 100.5,134.167 100.5,134.5C 98.1667,137.5 95.5,140.167 92.5,142.5C 92.7135,140.856 92.3802,139.356 91.5,138C 93.1322,136.69 94.7988,136.19 96.5,136.5C 96.2907,135.914 95.9574,135.414 95.5,135C 96.7717,133.693 97.7717,132.193 98.5,130.5C 99.1757,131.602 99.8423,132.602 100.5,133.5 Z"/></g>
<g><path style="opacity:0.655" fill="#e6b1c5" d="M 111.5,131.5 C 111.5,132.833 112.167,133.5 113.5,133.5C 112.167,134.933 110.667,136.267 109,137.5C 107.413,134.817 108.247,132.817 111.5,131.5 Z"/></g>
<g><path style="opacity:1" fill="#e9548a" d="M 180.5,74.5 C 180.5,76.5 180.5,78.5 180.5,80.5C 178.344,93.0305 175.011,105.364 170.5,117.5C 167.759,119.975 165.759,122.975 164.5,126.5C 164.5,127.167 164.167,127.5 163.5,127.5C 162.5,127.833 161.833,128.5 161.5,129.5C 160.167,130.167 159.167,131.167 158.5,132.5C 158.167,133.5 157.5,134.167 156.5,134.5C 154.973,134.427 153.973,135.094 153.5,136.5C 150.322,139.258 146.655,141.258 142.5,142.5C 136.208,143.822 129.875,144.989 123.5,146C 117.319,146.819 111.319,146.653 105.5,145.5C 107.674,145.08 109.674,145.08 111.5,145.5C 112.705,144.423 113.372,143.09 113.5,141.5C 115.027,141.573 116.027,140.906 116.5,139.5C 119.198,139.155 121.198,137.822 122.5,135.5C 125.891,134.471 128.557,132.471 130.5,129.5C 135.5,126.5 139.5,122.5 142.5,117.5C 144.262,116.738 145.262,115.404 145.5,113.5C 146.906,113.027 147.573,112.027 147.5,110.5C 148.906,110.027 149.573,109.027 149.5,107.5C 150.497,107.53 151.164,107.03 151.5,106C 155.434,97.9621 157.434,89.4621 157.5,80.5C 157.5,78.1667 157.5,75.8333 157.5,73.5C 165.191,73.4035 172.858,73.7368 180.5,74.5 Z"/></g>
<g><path style="opacity:0.051" fill="#f3dee5" d="M 156.5,134.5 C 156.027,135.906 155.027,136.573 153.5,136.5C 153.973,135.094 154.973,134.427 156.5,134.5 Z"/></g>
<g><path style="opacity:0.776" fill="#e7b2c5" d="M 58.5,135.5 C 60.2303,136.026 61.5637,137.026 62.5,138.5C 60.368,138.446 59.0347,137.446 58.5,135.5 Z"/></g>
<g><path style="opacity:0.443" fill="#efc9d7" d="M 122.5,135.5 C 121.198,137.822 119.198,139.155 116.5,139.5C 118.147,137.674 120.147,136.34 122.5,135.5 Z"/></g>
<g><path style="opacity:0.278" fill="#eed1db" d="M 27.5,136.5 C 29.0269,136.427 30.0269,137.094 30.5,138.5C 28.9731,138.573 27.9731,137.906 27.5,136.5 Z"/></g>
<g><path style="opacity:0.008" fill="#f7e9ee" d="M 83.5,137.5 C 84.1667,137.833 84.8333,138.167 85.5,138.5C 85.8333,139.167 86.1667,139.833 86.5,140.5C 84.5,140.5 83.5,139.5 83.5,137.5 Z"/></g>
<g><path style="opacity:0.271" fill="#eecdd9" d="M 62.5,138.5 C 64.674,138.75 66.3406,139.75 67.5,141.5C 65.326,141.25 63.6594,140.25 62.5,138.5 Z"/></g>
<g><path style="opacity:0.565" fill="#ecbece" d="M 116.5,139.5 C 116.027,140.906 115.027,141.573 113.5,141.5C 113.973,140.094 114.973,139.427 116.5,139.5 Z"/></g>
<g><path style="opacity:0.804" fill="#efc1d1" d="M 38.5,142.5 C 44.0849,143.23 49.4183,144.563 54.5,146.5C 48.8302,146.083 43.4968,144.749 38.5,142.5 Z"/></g>
<g><path style="opacity:0.004" fill="#fefefd" d="M 74.5,142.5 C 75.8333,143.167 75.8333,143.167 74.5,142.5 Z"/></g>
<g><path style="opacity:0.584" fill="#e8b8ca" d="M 86.5,140.5 C 88.3146,141.63 90.3146,142.296 92.5,142.5C 92.189,143.478 91.5223,144.145 90.5,144.5C 88.812,143.479 87.4787,142.145 86.5,140.5 Z"/></g>
<g><path style="opacity:0.027" fill="#fcfafa" d="M 105.5,142.5 C 106.833,143.167 106.833,143.167 105.5,142.5 Z"/></g>
<g><path style="opacity:0.008" fill="#fdfefd" d="M 105.5,143.5 C 105.5,143.833 105.5,144.167 105.5,144.5C 104.83,144.019 104.83,143.685 105.5,143.5 Z"/></g>
<g><path style="opacity:0.008" fill="#fdfefd" d="M 77.5,144.5 C 78.8333,145.167 78.8333,145.167 77.5,144.5 Z"/></g>
<g><path style="opacity:1" fill="#ec7ca3" d="M 113.5,141.5 C 113.372,143.09 112.705,144.423 111.5,145.5C 109.674,145.08 107.674,145.08 105.5,145.5C 105.5,145.167 105.5,144.833 105.5,144.5C 108.167,143.5 110.833,142.5 113.5,141.5 Z"/></g>
<g><path style="opacity:0.11" fill="#f3d7e1" d="M 142.5,142.5 C 139.094,144.109 135.427,145.276 131.5,146C 124.293,146.922 117.126,147.756 110,148.5C 107.853,147.887 105.686,147.221 103.5,146.5C 103.957,145.702 104.624,145.369 105.5,145.5C 111.319,146.653 117.319,146.819 123.5,146C 129.875,144.989 136.208,143.822 142.5,142.5 Z"/></g>
<g><path style="opacity:0.375" fill="#f0d0dc" d="M 70.5,142.5 C 72.7513,143.695 75.0846,144.695 77.5,145.5C 77.5,146.167 77.5,146.833 77.5,147.5C 70.1246,148.142 62.7912,147.808 55.5,146.5C 61.8421,146.666 68.1754,146.5 74.5,146C 72.4556,145.502 71.1223,144.335 70.5,142.5 Z"/></g>
<g><path style="opacity:0.004" fill="#fefefd" d="M 77.5,147.5 C 78.8333,148.167 78.8333,148.167 77.5,147.5 Z"/></g>
</svg>
